<svg xmlns="http://www.w3.org/2000/svg" width="1140" height="350"><path d="M-137,-215L151,-197L263,-201Z" fill="#e4f5b9" stroke="#e4f5b9" stroke-width="1.51"/><path d="M415,583L277,595L591,596Z" fill="#497193" stroke="#497193" stroke-width="1.51"/><path d="M-137,-215L263,-201L718,-200Z" fill="#caeabc" stroke="#caeabc" stroke-width="1.51"/><path d="M263,-201L413,-174L718,-200Z" fill="#b2debe" stroke="#b2debe" stroke-width="1.51"/><path d="M-137,-215L718,-200L1005,-204Z" fill="#addbc2" stroke="#addbc2" stroke-width="1.51"/><path d="M-137,-215L1005,-204L1169,-208Z" fill="#a4cdc3" stroke="#a4cdc3" stroke-width="1.51"/><path d="M1313,-95L1132,-28L1324,128Z" fill="#6d7f9d" stroke="#6d7f9d" stroke-width="1.51"/><path d="M1132,-28L1127,113L1324,128Z" fill="#5b7ca8" stroke="#5b7ca8" stroke-width="1.51"/><path d="M1191,516L1037,584L1328,541Z" fill="#20318a" stroke="#20318a" stroke-width="1.51"/><path d="M1313,-95L1324,128L1345,-179Z" fill="#768091" stroke="#768091" stroke-width="1.51"/><path d="M1324,128L1121,273L1354,276Z" fill="#31669f" stroke="#31669f" stroke-width="1.51"/><path d="M1345,-179L1324,128L1354,276Z" fill="#4e7292" stroke="#4e7292" stroke-width="1.51"/><path d="M1191,516L1328,541L1354,374Z" fill="#1f3488" stroke="#1f3488" stroke-width="1.51"/><path d="M1158,455L1191,516L1354,374Z" fill="#233d92" stroke="#233d92" stroke-width="1.51"/><path d="M1354,276L1121,273L1354,374Z" fill="#24589b" stroke="#24589b" stroke-width="1.51"/><path d="M1121,273L1158,455L1354,374Z" fill="#264f9e" stroke="#264f9e" stroke-width="1.51"/><path d="M1169,-208L1313,-95L1345,-179Z" fill="#8e8a98" stroke="#8e8a98" stroke-width="1.51"/><path d="M1127,113L1121,273L1324,128Z" fill="#4074ac" stroke="#4074ac" stroke-width="1.51"/><path d="M1169,-208L1132,-28L1313,-95Z" fill="#8d8ca4" stroke="#8d8ca4" stroke-width="1.51"/><path d="M821,526L591,596L1037,584Z" fill="#235698" stroke="#235698" stroke-width="1.51"/><path d="M1052,53L1127,113L1132,-28Z" fill="#6389ac" stroke="#6389ac" stroke-width="1.51"/><path d="M1121,273L1042,350L1158,455Z" fill="#275aa7" stroke="#275aa7" stroke-width="1.51"/><path d="M1005,-204L1132,-28L1169,-208Z" fill="#9599aa" stroke="#9599aa" stroke-width="1.51"/><path d="M1158,455L1037,584L1191,516Z" fill="#253a95" stroke="#253a95" stroke-width="1.51"/><path d="M1005,263L1121,273L1127,113Z" fill="#3678b1" stroke="#3678b1" stroke-width="1.51"/><path d="M1005,-204L975,-21L1132,-28Z" fill="#8a9cae" stroke="#8a9cae" stroke-width="1.51"/><path d="M1042,350L1037,584L1158,455Z" fill="#26499e" stroke="#26499e" stroke-width="1.51"/><path d="M718,-200L908,-168L1005,-204Z" fill="#9db6ba" stroke="#9db6ba" stroke-width="1.51"/><path d="M1052,53L1005,263L1127,113Z" fill="#4683b2" stroke="#4683b2" stroke-width="1.51"/><path d="M975,-21L1052,53L1132,-28Z" fill="#7393ae" stroke="#7393ae" stroke-width="1.51"/><path d="M715,535L591,596L821,526Z" fill="#2d639f" stroke="#2d639f" stroke-width="1.51"/><path d="M886,432L1037,584L1042,350Z" fill="#2554a3" stroke="#2554a3" stroke-width="1.51"/><path d="M1005,263L1042,350L1121,273Z" fill="#276eb0" stroke="#276eb0" stroke-width="1.51"/><path d="M908,-168L975,-21L1005,-204Z" fill="#93a8b1" stroke="#93a8b1" stroke-width="1.51"/><path d="M904,80L918,263L1005,263Z" fill="#338ab8" stroke="#338ab8" stroke-width="1.51"/><path d="M904,80L1005,263L1052,53Z" fill="#478db5" stroke="#478db5" stroke-width="1.51"/><path d="M975,-21L904,80L1052,53Z" fill="#6597b3" stroke="#6597b3" stroke-width="1.51"/><path d="M886,432L821,526L1037,584Z" fill="#2852a2" stroke="#2852a2" stroke-width="1.51"/><path d="M1005,263L918,263L1042,350Z" fill="#2376b3" stroke="#2376b3" stroke-width="1.51"/><path d="M918,263L886,432L1042,350Z" fill="#236db0" stroke="#236db0" stroke-width="1.51"/><path d="M908,-168L886,-5L975,-21Z" fill="#87a9b3" stroke="#87a9b3" stroke-width="1.51"/><path d="M886,-5L904,80L975,-21Z" fill="#6da1b5" stroke="#6da1b5" stroke-width="1.51"/><path d="M718,-200L680,-39L886,-5Z" fill="#8ebfbb" stroke="#8ebfbb" stroke-width="1.51"/><path d="M718,-200L886,-5L908,-168Z" fill="#94b8b7" stroke="#94b8b7" stroke-width="1.51"/><path d="M904,80L769,210L918,263Z" fill="#3497bd" stroke="#3497bd" stroke-width="1.51"/><path d="M769,210L886,432L918,263Z" fill="#2183ba" stroke="#2183ba" stroke-width="1.51"/><path d="M769,210L684,446L886,432Z" fill="#227fb8" stroke="#227fb8" stroke-width="1.51"/><path d="M706,97L769,210L904,80Z" fill="#46a6bf" stroke="#46a6bf" stroke-width="1.51"/><path d="M886,-5L706,97L904,80Z" fill="#5da8bb" stroke="#5da8bb" stroke-width="1.51"/><path d="M684,446L821,526L886,432Z" fill="#2968ad" stroke="#2968ad" stroke-width="1.51"/><path d="M680,-39L706,97L886,-5Z" fill="#6fb5bd" stroke="#6fb5bd" stroke-width="1.51"/><path d="M684,446L715,535L821,526Z" fill="#2f67ac" stroke="#2f67ac" stroke-width="1.51"/><path d="M413,-174L604,-144L718,-200Z" fill="#a6d6be" stroke="#a6d6be" stroke-width="1.51"/><path d="M604,-144L680,-39L718,-200Z" fill="#9bcbbb" stroke="#9bcbbb" stroke-width="1.51"/><path d="M706,97L562,241L769,210Z" fill="#39aac3" stroke="#39aac3" stroke-width="1.51"/><path d="M562,241L684,446L769,210Z" fill="#2a98c0" stroke="#2a98c0" stroke-width="1.51"/><path d="M562,241L554,430L684,446Z" fill="#348db9" stroke="#348db9" stroke-width="1.51"/><path d="M680,-39L545,64L706,97Z" fill="#6bbdbf" stroke="#6bbdbf" stroke-width="1.51"/><path d="M545,64L562,241L706,97Z" fill="#4eb7c2" stroke="#4eb7c2" stroke-width="1.51"/><path d="M684,446L591,596L715,535Z" fill="#356aa8" stroke="#356aa8" stroke-width="1.51"/><path d="M604,-144L541,-61L680,-39Z" fill="#94cdbc" stroke="#94cdbc" stroke-width="1.51"/><path d="M541,-61L545,64L680,-39Z" fill="#81c9be" stroke="#81c9be" stroke-width="1.51"/><path d="M554,430L591,596L684,446Z" fill="#3b74ae" stroke="#3b74ae" stroke-width="1.51"/><path d="M545,64L434,104L562,241Z" fill="#59bdc2" stroke="#59bdc2" stroke-width="1.51"/><path d="M440,238L554,430L562,241Z" fill="#40a3c0" stroke="#40a3c0" stroke-width="1.51"/><path d="M554,430L415,583L591,596Z" fill="#4473a5" stroke="#4473a5" stroke-width="1.51"/><path d="M413,-174L541,-61L604,-144Z" fill="#a4d7bb" stroke="#a4d7bb" stroke-width="1.51"/><path d="M440,238L391,404L554,430Z" fill="#4c99b8" stroke="#4c99b8" stroke-width="1.51"/><path d="M434,104L440,238L562,241Z" fill="#51b8c2" stroke="#51b8c2" stroke-width="1.51"/><path d="M413,-174L453,-58L541,-61Z" fill="#a3d8ba" stroke="#a3d8ba" stroke-width="1.51"/><path d="M541,-61L453,-58L545,64Z" fill="#8bcebc" stroke="#8bcebc" stroke-width="1.51"/><path d="M391,404L415,583L554,430Z" fill="#5081ae" stroke="#5081ae" stroke-width="1.51"/><path d="M453,-58L434,104L545,64Z" fill="#7bc9bd" stroke="#7bc9bd" stroke-width="1.51"/><path d="M293,226L300,391L391,404Z" fill="#63a4b8" stroke="#63a4b8" stroke-width="1.51"/><path d="M292,-2L325,110L434,104Z" fill="#80cdbc" stroke="#80cdbc" stroke-width="1.51"/><path d="M293,226L391,404L440,238Z" fill="#59adbe" stroke="#59adbe" stroke-width="1.51"/><path d="M434,104L325,110L440,238Z" fill="#65c2c0" stroke="#65c2c0" stroke-width="1.51"/><path d="M325,110L293,226L440,238Z" fill="#65bfbf" stroke="#65bfbf" stroke-width="1.51"/><path d="M292,-2L434,104L453,-58Z" fill="#8dd1ba" stroke="#8dd1ba" stroke-width="1.51"/><path d="M413,-174L292,-2L453,-58Z" fill="#a8dbb8" stroke="#a8dbb8" stroke-width="1.51"/><path d="M300,391L277,595L391,404Z" fill="#658aad" stroke="#658aad" stroke-width="1.51"/><path d="M391,404L277,595L415,583Z" fill="#5c7ca5" stroke="#5c7ca5" stroke-width="1.51"/><path d="M263,-201L292,-2L413,-174Z" fill="#bae3b6" stroke="#bae3b6" stroke-width="1.51"/><path d="M151,-197L103,-54L263,-201Z" fill="#d6eeb3" stroke="#d6eeb3" stroke-width="1.51"/><path d="M263,-201L103,-54L292,-2Z" fill="#c3e7b5" stroke="#c3e7b5" stroke-width="1.51"/><path d="M112,517L277,595L300,391Z" fill="#7787a9" stroke="#7787a9" stroke-width="1.51"/><path d="M293,226L175,286L300,391Z" fill="#73b2bb" stroke="#73b2bb" stroke-width="1.51"/><path d="M156,114L293,226L325,110Z" fill="#82cbbd" stroke="#82cbbd" stroke-width="1.51"/><path d="M292,-2L156,114L325,110Z" fill="#91d3ba" stroke="#91d3ba" stroke-width="1.51"/><path d="M112,517L-16,597L277,595Z" fill="#7d8397" stroke="#7d8397" stroke-width="1.51"/><path d="M175,286L89,453L300,391Z" fill="#7fa4b3" stroke="#7fa4b3" stroke-width="1.51"/><path d="M89,453L112,517L300,391Z" fill="#8295ab" stroke="#8295ab" stroke-width="1.51"/><path d="M156,114L175,286L293,226Z" fill="#84c6bd" stroke="#84c6bd" stroke-width="1.51"/><path d="M103,-54L156,114L292,-2Z" fill="#aedeb7" stroke="#aedeb7" stroke-width="1.51"/><path d="M-137,-215L-6,-164L151,-197Z" fill="#ebf7b7" stroke="#ebf7b7" stroke-width="1.51"/><path d="M156,114L14,295L175,286Z" fill="#90c7bc" stroke="#90c7bc" stroke-width="1.51"/><path d="M14,295L89,453L175,286Z" fill="#8cb0b5" stroke="#8cb0b5" stroke-width="1.51"/><path d="M-6,-164L103,-54L151,-197Z" fill="#ddf1b3" stroke="#ddf1b3" stroke-width="1.51"/><path d="M103,-54L-51,65L156,114Z" fill="#b4e0b7" stroke="#b4e0b7" stroke-width="1.51"/><path d="M-51,65L14,295L156,114Z" fill="#a0d5bb" stroke="#a0d5bb" stroke-width="1.51"/><path d="M14,295L-5,427L89,453Z" fill="#91a6b0" stroke="#91a6b0" stroke-width="1.51"/><path d="M-24,-58L-51,65L103,-54Z" fill="#cbeab4" stroke="#cbeab4" stroke-width="1.51"/><path d="M-6,-164L-24,-58L103,-54Z" fill="#dbf1b3" stroke="#dbf1b3" stroke-width="1.51"/><path d="M89,453L-5,427L112,517Z" fill="#8d96aa" stroke="#8d96aa" stroke-width="1.51"/><path d="M-5,427L-16,597L112,517Z" fill="#8f8da6" stroke="#8f8da6" stroke-width="1.51"/><path d="M-182,156L-136,276L-51,65Z" fill="#aad9c2" stroke="#aad9c2" stroke-width="1.51"/><path d="M-127,394L-205,565L-16,597Z" fill="#9890aa" stroke="#9890aa" stroke-width="1.51"/><path d="M-127,394L-16,597L-5,427Z" fill="#9898a9" stroke="#9898a9" stroke-width="1.51"/><path d="M-51,65L-136,276L14,295Z" fill="#a3d0bc" stroke="#a3d0bc" stroke-width="1.51"/><path d="M-127,394L-5,427L14,295Z" fill="#98adb2" stroke="#98adb2" stroke-width="1.51"/><path d="M-136,276L-127,394L14,295Z" fill="#9dbbbb" stroke="#9dbbbb" stroke-width="1.51"/><path d="M-137,-215L-163,-45L-24,-58Z" fill="#e6f5b8" stroke="#e6f5b8" stroke-width="1.51"/><path d="M-137,-215L-24,-58L-6,-164Z" fill="#ebf7b1" stroke="#ebf7b1" stroke-width="1.51"/><path d="M-163,-45L-51,65L-24,-58Z" fill="#d1edb7" stroke="#d1edb7" stroke-width="1.51"/><path d="M-163,-45L-182,156L-51,65Z" fill="#bee4be" stroke="#bee4be" stroke-width="1.51"/><path d="M-136,276L-205,565L-127,394Z" fill="#9ca7b8" stroke="#9ca7b8" stroke-width="1.51"/><path d="M-182,156L-205,565L-136,276Z" fill="#9fb9c1" stroke="#9fb9c1" stroke-width="1.51"/></svg>